<svg xmlns="http://www.w3.org/2000/svg" xmlns:xlink="http://www.w3.org/1999/xlink" width="964.619" height="173.125" viewBox="0 0 964.619 173.126" xmlns:v="https://vecta.io/nano"><g transform="translate(-82.604 -503.498)"><path d="M526.037 676.528V503.498L379.568 676.528h22.803l101.34-111.439v111.439z" id="A" fill="#fff"/><path d="M552.559 676.624v-173.1l123.396 119.889V503.524h22.998v173.1L574.886 565.088v111.536zm259.407-172.969c-12.013 0-23.245 2.341-33.698 7.021-10.296 4.524-19.423 10.842-27.379 18.954-7.956 7.956-14.196 17.161-18.72 27.613-4.368 10.296-7.117 21.295-7.117 32.995 0 12.324 2.749 23.712 7.117 34.165 4.524 10.452 10.764 19.579 18.72 27.379a87.67 87.67 0 0 0 27.379 18.253c10.452 4.368 21.685 6.553 33.698 6.553 11.856 0 23.011-2.185 33.464-6.553 10.452-4.524 19.657-10.685 27.613-18.486 7.956-7.956 14.196-17.161 18.72-27.613s6.785-21.685 6.785-33.698c0-11.7-2.261-22.699-6.785-32.995-4.524-10.452-10.842-19.657-18.954-27.613-7.956-8.112-17.161-14.43-27.613-18.954-10.296-4.68-21.373-7.021-33.229-7.021zm0 21.763c8.736 0 16.926 1.717 24.57 5.149 7.644 3.276 14.353 7.878 20.126 13.807s10.296 12.87 13.572 20.826c3.276 7.8 4.913 16.146 4.913 25.039 0 9.048-1.637 17.473-4.913 25.273-3.276 7.644-7.722 14.431-13.338 20.36s-12.247 10.607-19.891 14.039c-7.644 3.276-15.834 4.915-24.57 4.915-8.892 0-17.162-1.639-24.806-4.915-7.644-3.432-14.351-8.111-20.124-14.039a66.46 66.46 0 0 1-13.572-20.36c-3.276-7.8-4.915-16.146-4.915-25.039s1.561-17.238 4.681-25.039c3.12-7.956 7.566-14.9 13.338-20.828s12.481-10.607 20.126-14.039 15.912-5.149 24.804-5.149zm-556.439-21.91V676.62h55.332c11.448 0 22.261-1.908 32.437-5.724 10.335-3.975 19.477-9.621 27.427-16.935s14.152-16.139 18.604-26.474c4.611-10.335 6.916-22.021 6.916-35.059 0-10.335-1.748-20.669-5.246-31.004-3.339-10.494-8.666-20.035-15.98-28.621s-17.012-15.503-29.096-20.75c-11.925-5.247-26.394-8.546-43.407-8.546zm23.136 22.856h29.813c8.427 0 16.457 1.431 24.089 4.293 7.632 2.703 14.468 6.758 20.51 12.164s10.812 12.164 14.31 20.273c3.498 7.95 5.246 17.252 5.246 27.905 0 10.017-1.669 19-5.008 26.95-3.339 7.791-8.03 14.389-14.072 19.795-5.883 5.406-12.878 9.54-20.987 12.402-7.95 2.862-16.695 4.293-26.235 4.293h-27.666zm646.198-22.84v23.368h54.785s27.039 2.206 28.135 29.378c1.364 33.824-28.135 35.082-28.135 35.082h-54.785v85.241h23.144V613.76h31.64l40.728 62.833h26.849l-43.402-68.704s27.734-5.774 28.49-51.62-52.666-52.747-52.666-52.747z" fill="#fff"/><use xlink:href="#A" x="-296.964"/></g></svg>